<?xml version="1.0" standalone="no"?>
<!DOCTYPE svg PUBLIC "-//W3C//DTD SVG 20010904//EN"
 "http://www.w3.org/TR/2001/REC-SVG-20010904/DTD/svg10.dtd">
<svg version="1.0" xmlns="http://www.w3.org/2000/svg"
 width="216.000000pt" height="233.000000pt" viewBox="0 0 216.000000 233.000000"
 preserveAspectRatio="xMidYMid meet">
<metadata>
Created by potrace 1.16, written by Peter Selinger 2001-2019
</metadata>
<g transform="translate(0.000000,233.000000) scale(0.100000,-0.100000)"
fill="#000000" stroke="none">
<path d="M965 1966 c-261 -51 -462 -236 -525 -482 -48 -186 -14 -391 89 -543
226 -332 703 -391 993 -122 150 139 218 291 218 491 0 158 -41 283 -133 407
-141 189 -411 294 -642 249z m254 -82 c219 -55 389 -232 436 -453 19 -90 19
-147 0 -235 -14 -68 -57 -171 -88 -211 -14 -19 -16 -18 -31 20 -36 85 -126
167 -218 198 -46 16 -48 16 -105 -11 -82 -38 -184 -38 -266 0 -57 27 -59 27
-105 11 -91 -31 -182 -113 -217 -197 -12 -29 -19 -35 -29 -27 -23 19 -76 147
-92 223 -41 193 36 419 189 553 59 51 168 109 247 129 74 20 200 20 279 0z"/>
<path d="M1008 1746 c-48 -13 -61 -21 -112 -65 -74 -66 -98 -199 -52 -297 41
-88 144 -154 241 -154 88 0 191 69 231 154 94 202 -94 422 -308 362z"/>
</g>
</svg>
